<svg xmlns="http://www.w3.org/2000/svg" viewBox="0 0 256 256"><defs><style>.cls-1{fill:#1d384d}</style></defs><g id="icons_without_caption" data-name="icons without caption"><g id="CREDIT_CARD" data-name="CREDIT CARD"><path class="cls-1" d="M198.6 66.71H85.49a18.4 18.4 0 0 0-18.38 18.38v9.18h4v-9.18a14.4 14.4 0 0 1 14.38-14.38H198.6A14.4 14.4 0 0 1 213 85.09v60.25a14.4 14.4 0 0 1-14.38 14.38h-11.73v4h11.71a18.4 18.4 0 0 0 18.4-18.38V85.09a18.4 18.4 0 0 0-18.4-18.38zM60.23 170.75h10.2v4h-10.2zM74.72 170.75h10.2v4h-10.2z"/><path class="cls-1" d="M168.72 174.75H155a7.26 7.26 0 0 1-7.26-7.25v-6.27A7.26 7.26 0 0 1 155 154h13.73a7.26 7.26 0 0 1 7.26 7.26v6.27a7.26 7.26 0 0 1-7.27 7.22zM155 158a3.26 3.26 0 0 0-3.26 3.26v6.27a3.26 3.26 0 0 0 3.26 3.25h13.73a3.26 3.26 0 0 0 3.26-3.25v-6.27a3.26 3.26 0 0 0-3.26-3.26z"/><path class="cls-1" d="M169.36 92.27H58.55A19.55 19.55 0 0 0 39 111.8v58a19.55 19.55 0 0 0 19.53 19.53h110.83a19.55 19.55 0 0 0 19.53-19.53v-58a19.55 19.55 0 0 0-19.53-19.53zm-110.81 4h110.81a15.54 15.54 0 0 1 15.34 13.23H43.21a15.54 15.54 0 0 1 15.34-13.23zm126.34 73.49a15.55 15.55 0 0 1-15.53 15.53H58.55A15.55 15.55 0 0 1 43 169.76v-31.39h141.89zm0-35.39H43V113.5h141.89z"/></g></g></svg>